<svg id="Lager_3" data-name="Lager 3" xmlns="http://www.w3.org/2000/svg" viewBox="0 0 818.243 443.611"><defs><style>.cls-1{fill:#fff;}</style></defs><title>blogspace</title><path class="cls-1" d="M663,634.523c0,18.15-14.4,28.649-42,28.649H566.7V558.177H618c26.249,0,39.749,10.949,39.749,27.3a25.238,25.238,0,0,1-13.95,23.1C655.5,612.324,663,621.324,663,634.523Zm-72.147-58.046v24.748H615c11.85,0,18.3-4.2,18.3-12.45s-6.45-12.3-18.3-12.3Zm47.7,55.5c0-8.85-6.749-13.05-19.349-13.05H590.852v25.949H619.2C631.8,644.873,638.549,640.973,638.549,631.974Z" transform="translate(-566.703 -249.859)"/><path class="cls-1" d="M679.8,551.877h23.4v111.3H679.8Z" transform="translate(-566.703 -249.859)"/><path class="cls-1" d="M718.952,622.824c0-24.3,18.749-41.549,44.4-41.549s44.248,17.25,44.248,41.549-18.6,41.548-44.248,41.548S718.952,647.123,718.952,622.824Zm64.947,0c0-13.949-8.849-22.349-20.548-22.349s-20.7,8.4-20.7,22.349,9,22.349,20.7,22.349S783.9,636.773,783.9,622.824Z" transform="translate(-566.703 -249.859)"/><path class="cls-1" d="M906.449,582.476v67.2c0,30-16.2,43.8-45.3,43.8-15.3,0-30.149-3.75-39.6-11.1l9.3-16.8c6.9,5.55,18.149,9.15,28.5,9.15,16.5,0,23.7-7.5,23.7-22.049v-3.45c-6.149,6.75-15,10.049-25.5,10.049-22.349,0-40.348-15.449-40.348-39s18-39,40.348-39c11.25,0,20.55,3.75,26.7,11.55V582.476Zm-23.1,37.8c0-11.848-8.85-19.8-21.15-19.8s-21.3,7.95-21.3,19.8,9,19.8,21.3,19.8S883.35,632.123,883.35,620.273Z" transform="translate(-566.703 -249.859)"/><path class="cls-1" d="M920.4,652.822l8.25-18.3c8.85,6.45,22.049,10.95,34.649,10.95,14.4,0,20.249-4.8,20.249-11.249,0-19.65-61.048-6.15-61.048-45.149,0-17.848,14.4-32.7,44.248-32.7,13.2,0,26.7,3.149,36.449,9.3l-7.5,18.449c-9.749-5.549-19.8-8.249-29.1-8.249-14.4,0-19.95,5.4-19.95,12,0,19.35,61.048,6,61.048,44.549,0,17.549-14.55,32.549-44.549,32.549C946.5,664.973,929.7,660.022,920.4,652.822Z" transform="translate(-566.703 -249.859)"/><path class="cls-1" d="M1110.6,622.824c0,25.349-17.55,41.548-40.2,41.548-10.049,0-18.3-3.149-24.3-9.749v37.648h-23.4V582.476h22.349v9.3c5.849-7.049,14.55-10.5,25.349-10.5C1093.047,581.275,1110.6,597.475,1110.6,622.824Zm-23.7,0c0-13.949-8.849-22.349-20.548-22.349s-20.55,8.4-20.55,22.349,8.849,22.349,20.55,22.349S1086.9,636.773,1086.9,622.824Z" transform="translate(-566.703 -249.859)"/><path class="cls-1" d="M1196.246,617.124v46.048h-21.9V653.123c-4.351,7.35-12.75,11.249-24.6,11.249-18.9,0-30.148-10.5-30.148-24.448,0-14.25,10.049-24.15,34.648-24.15h18.6c0-10.049-6-15.9-18.6-15.9-8.55,0-17.4,2.85-23.249,7.5l-8.4-16.35c8.849-6.3,21.9-9.75,34.8-9.75C1182,581.275,1196.246,592.676,1196.246,617.124Zm-23.4,20.55v-8.25H1156.8c-10.949,0-14.4,4.05-14.4,9.449,0,5.85,4.951,9.75,13.2,9.75C1163.4,648.623,1170.147,645.023,1172.848,637.674Z" transform="translate(-566.703 -249.859)"/><path class="cls-1" d="M1212.3,622.824c0-24.3,18.749-41.549,45-41.549,16.949,0,30.3,7.35,36.148,20.549l-18.149,9.75c-4.35-7.649-10.8-11.1-18.149-11.1-11.849,0-21.149,8.25-21.149,22.349s9.3,22.349,21.149,22.349c7.35,0,13.8-3.3,18.149-11.1l18.149,9.9c-5.849,12.9-19.2,20.4-36.148,20.4C1231.047,664.372,1212.3,647.123,1212.3,622.824Z" transform="translate(-566.703 -249.859)"/><path class="cls-1" d="M1384.5,629.424h-61.048c2.25,10.049,10.8,16.2,23.1,16.2,8.549,0,14.7-2.55,20.249-7.8l12.449,13.5c-7.5,8.551-18.749,13.05-33.3,13.05-27.9,0-46.048-17.549-46.048-41.548,0-24.149,18.45-41.549,43.048-41.549,23.7,0,42,15.9,42,41.849C1384.945,624.924,1384.645,627.474,1384.5,629.424Zm-61.348-13.65H1362.9c-1.65-10.2-9.3-16.8-19.8-16.8C1332.447,598.975,1324.8,605.425,1323.147,615.774Z" transform="translate(-566.703 -249.859)"/><path class="cls-1" d="M1008.5,249.859c47.977,0,75.732,38.064,75.732,111.02V504.412H806.679V368.81c0-69.388,28.944-105.073,72.163-105.073,27.755,0,49.166,14.274,61.06,36.874C949.815,269.685,973.605,249.859,1008.5,249.859ZM855.052,440.576h65.423V376.739c0-31.323-11.1-48.372-32.911-48.372s-32.512,17.049-32.512,48.372Zm146.7-126.087c-23.394,0-34.5,17.843-34.5,51.148v74.939h68.594V365.637C1035.855,332.332,1025.547,314.489,1001.757,314.489Z" transform="translate(-566.703 -249.859)"/><path class="cls-1" d="M954.026,387.067h28.018c20.176,0,34.008,12.158,34.008,30.836s-13.832,30.837-34.008,30.837H954.026Zm27.313,49.955c12.246,0,20.264-7.313,20.264-19.119s-8.018-19.118-20.264-19.118H968.3v38.237Z" transform="translate(-566.703 -249.859)"/><path class="cls-1" d="M935.523,448.74H907.506c-20.176,0-34.008-12.158-34.008-30.837s13.832-30.836,34.008-30.836h28.017ZM921.25,437.022V398.785H908.211c-12.246,0-20.264,7.312-20.264,19.118s8.018,19.119,20.264,19.119Z" transform="translate(-566.703 -249.859)"/><circle class="cls-1" cx="416.66" cy="168.67" r="9.252"/><circle class="cls-1" cx="340.004" cy="168.67" r="9.252"/></svg>