<svg xmlns="http://www.w3.org/2000/svg" viewBox="0 0 314.998 288.898"><defs><style>.cls-1{fill:#fff;}</style></defs><title>logo</title><g id="Lager_1" data-name="Lager 1"><path class="cls-1" d="M1006.027,513.072c54.45,0,85.95,43.2,85.95,126v162.9h-315v-153.9c0-78.75,32.85-119.25,81.9-119.25,31.5,0,55.8,16.2,69.3,41.85C939.428,535.572,966.428,513.072,1006.027,513.072ZM831.878,729.521h74.25V657.072c0-35.551-12.6-54.9-37.35-54.9s-36.9,19.349-36.9,54.9Zm166.5-143.1c-26.55,0-39.149,20.25-39.149,58.05v85.049h77.849V644.472C1037.077,606.672,1025.377,586.422,998.377,586.422Z" transform="translate(-776.979 -513.072)"/><path class="cls-1" d="M944.206,668.783h31.8c22.9,0,38.6,13.8,38.6,35s-15.7,35-38.6,35h-31.8Zm31,56.7c13.9,0,23-8.3,23-21.7s-9.1-21.7-23-21.7h-14.8v43.4Z" transform="translate(-776.979 -513.072)"/><path class="cls-1" d="M919.2,738.787H887.4c-22.9,0-38.6-13.8-38.6-35s15.7-35,38.6-35h31.8Zm-16.2-13.3v-43.4H888.2c-13.9,0-23,8.3-23,21.7s9.1,21.7,23,21.7Z" transform="translate(-776.979 -513.072)"/><circle class="cls-1" cx="200.521" cy="191.428" r="10.5"/><circle class="cls-1" cx="109.521" cy="191.428" r="10.5"/></g></svg>