<svg xmlns="http://www.w3.org/2000/svg" viewBox="0 0 1004.384 299.996"><defs><style>.cls-1{fill:#fff;}</style></defs><title>read</title><g id="Lager_2" data-name="Lager 2"><path class="cls-1" d="M638.406,617.386l-54-78h-59.6v78h-64.8v-280h121.2c74.8,0,121.6,38.8,121.6,101.6,0,42-21.2,72.8-57.6,88.4l62.8,90Zm-60.8-227.2h-52.8v97.6h52.8c39.6,0,59.6-18.4,59.6-48.8C637.206,408.189,617.206,390.189,577.607,390.189Z" transform="translate(-460.009 -320.59)"/><path class="cls-1" d="M959.2,527.387H796.4c6,26.8,28.8,43.2,61.6,43.2,22.8,0,39.2-6.8,54-20.8l33.2,36c-20,22.8-50,34.8-88.8,34.8-74.4,0-122.8-46.8-122.8-110.8,0-64.4,49.2-110.8,114.8-110.8,63.2,0,112,42.4,112,111.6C960.4,515.387,959.6,522.187,959.2,527.387Zm-163.6-36.4h106c-4.4-27.2-24.8-44.8-52.8-44.8C820.4,446.188,800,463.388,795.6,490.988Z" transform="translate(-460.009 -320.59)"/><path class="cls-1" d="M1186.4,494.587v122.8H1128v-26.8c-11.6,19.6-34,30-65.6,30-50.4,0-80.4-28-80.4-65.2,0-38,26.8-64.4,92.4-64.4H1124c0-26.8-16-42.4-49.6-42.4-22.8,0-46.4,7.6-62,20l-22.4-43.6c23.6-16.8,58.4-26,92.8-26C1148.4,398.989,1186.4,429.389,1186.4,494.587Zm-62.4,54.8v-22h-42.8c-29.2,0-38.4,10.8-38.4,25.2,0,15.6,13.2,26,35.2,26C1098.8,578.586,1116.8,568.986,1124,549.387Z" transform="translate(-460.009 -320.59)"/><path class="cls-1" d="M1464.393,320.59v296.8h-59.6v-24.8c-15.6,18.8-38.4,28-67.2,28-60.8,0-107.6-43.2-107.6-110.8s46.8-110.8,107.6-110.8c26.4,0,48.8,8.4,64.4,26V320.59Zm-61.2,189.2c0-37.2-24-59.6-54.8-59.6-31.2,0-55.2,22.4-55.2,59.6s24,59.6,55.2,59.6C1379.194,569.387,1403.193,546.986,1403.193,509.788Z" transform="translate(-460.009 -320.59)"/></g></svg>