<svg xmlns="http://www.w3.org/2000/svg" xmlns:xlink="http://www.w3.org/1999/xlink" viewBox="0 0 1175.59 301.595"><defs><style>.cls-1{fill:url(#Namnlös_övertoning_49);}</style><linearGradient id="Namnlös_övertoning_49" x1="959.199" y1="622.186" x2="959.199" y2="320.59" gradientUnits="userSpaceOnUse"><stop offset="0" stop-color="#fff"/><stop offset="0.685" stop-color="#fff"/><stop offset="0.711" stop-color="#fff"/></linearGradient></defs><title>share</title><g id="Lager_2" data-name="Lager 2"><path class="cls-1" d="M371.4,589.786l22-48.8c23.6,17.2,58.8,29.2,92.4,29.2,38.4,0,54-12.8,54-30,0-52.4-162.8-16.4-162.8-120.4,0-47.6,38.4-87.2,118-87.2,35.2,0,71.2,8.4,97.2,24.8l-20,49.2c-26-14.8-52.8-22-77.6-22-38.4,0-53.2,14.4-53.2,32,0,51.6,162.8,16,162.8,118.8,0,46.8-38.8,86.8-118.8,86.8C441,622.186,396.2,608.986,371.4,589.786Z" transform="translate(-371.404 -320.59)"/><path class="cls-1" d="M864.2,494.188v123.2H801.8v-113.6c0-34.8-16-50.8-43.6-50.8-30,0-51.6,18.4-51.6,58v106.4H644.2V320.59h62.4v104c16.8-16.8,40.8-25.6,68.4-25.6C825.8,398.989,864.2,428.589,864.2,494.188Z" transform="translate(-371.404 -320.59)"/><path class="cls-1" d="M1110.992,494.587v122.8h-58.4v-26.8c-11.6,19.6-34,30-65.6,30-50.4,0-80.4-28-80.4-65.2,0-38,26.8-64.4,92.4-64.4h49.6c0-26.8-16-42.4-49.6-42.4-22.8,0-46.4,7.6-62,20l-22.4-43.6c23.6-16.8,58.4-26,92.8-26C1072.993,398.989,1110.992,429.389,1110.992,494.587Zm-62.4,54.8v-22h-42.8c-29.2,0-38.4,10.8-38.4,25.2,0,15.6,13.2,26,35.2,26C1023.394,578.586,1041.394,568.986,1048.594,549.387Z" transform="translate(-371.404 -320.59)"/><path class="cls-1" d="M1300.989,398.989v57.6c-5.2-.4-9.2-.8-14-.8-34.4,0-57.2,18.8-57.2,60v101.6h-62.4v-215.2h59.6v28.4C1242.19,409.789,1267.79,398.989,1300.989,398.989Z" transform="translate(-371.404 -320.59)"/><path class="cls-1" d="M1545.794,527.387H1383c6,26.8,28.8,43.2,61.6,43.2,22.8,0,39.2-6.8,54-20.8l33.2,36c-20,22.8-50,34.8-88.8,34.8-74.4,0-122.8-46.8-122.8-110.8,0-64.4,49.2-110.8,114.8-110.8,63.2,0,112,42.4,112,111.6C1546.994,515.387,1546.193,522.187,1545.794,527.387Zm-163.6-36.4h106c-4.4-27.2-24.8-44.8-52.8-44.8C1407,446.188,1386.6,463.388,1382.2,490.988Z" transform="translate(-371.404 -320.59)"/></g></svg>