<svg xmlns="http://www.w3.org/2000/svg" viewBox="0 0 1140.398 317.996"><defs><style>.cls-1{fill:#fff;}</style></defs><title>write</title><g id="Lager_2" data-name="Lager 2"><path class="cls-1" d="M835.393,337.39l-91.6,280H674.2l-61.6-189.6L549,617.386H479.8l-92-280H455l63.2,196.8,66-196.8h60l64,198.4,65.2-198.4Z" transform="translate(-387.8 -302.59)"/><path class="cls-1" d="M992.6,398.989v57.6c-5.2-.4-9.2-.8-14-.8-34.4,0-57.2,18.8-57.2,60v101.6H859v-215.2h59.6v28.4C933.8,409.789,959.4,398.989,992.6,398.989Z" transform="translate(-387.8 -302.59)"/><path class="cls-1" d="M1022.2,337.39c0-19.6,15.6-34.8,38.8-34.8s38.8,14.4,38.8,33.6c0,20.8-15.6,36-38.8,36S1022.2,356.99,1022.2,337.39Zm7.6,64.8h62.4v215.2h-62.4Z" transform="translate(-387.8 -302.59)"/><path class="cls-1" d="M1289,606.986c-12.8,9.2-31.6,13.6-50.8,13.6-50.8,0-80.4-26-80.4-77.2v-88.4h-33.2v-48h33.2v-52.4h62.4v52.4h53.6v48h-53.6v87.6c0,18.4,10,28.4,26.8,28.4,9.2,0,18.4-2.8,25.2-8Z" transform="translate(-387.8 -302.59)"/><path class="cls-1" d="M1527,527.387H1364.2c6,26.8,28.8,43.2,61.6,43.2,22.8,0,39.2-6.8,54-20.8l33.2,36c-20,22.8-50,34.8-88.8,34.8-74.4,0-122.8-46.8-122.8-110.8,0-64.4,49.2-110.8,114.8-110.8,63.2,0,112,42.4,112,111.6C1528.2,515.387,1527.4,522.187,1527,527.387Zm-163.6-36.4h106c-4.4-27.2-24.8-44.8-52.8-44.8C1388.2,446.188,1367.8,463.388,1363.4,490.988Z" transform="translate(-387.8 -302.59)"/></g></svg>